<?xml version="1.0" encoding="utf-8"?>
<!-- Generator: Adobe Illustrator 24.3.0, SVG Export Plug-In . SVG Version: 6.00 Build 0)  -->
<svg version="1.1" xmlns="http://www.w3.org/2000/svg" xmlns:xlink="http://www.w3.org/1999/xlink" x="0px" y="0px"
	 viewBox="0 0 64.71 64.71" style="enable-background:new 0 0 64.71 64.71;" xml:space="preserve">
<style type="text/css">
	.st0{fill:#8CC63F;}
	.st1{display:none;}
	.st2{display:inline;}
</style>
<g id="Layer_1">
	<g>
		<g>
			<circle class="st0" cx="32.38" cy="26.82" r="13.08"/>
			<path class="st0" d="M32.38,15.22c6.39,0,11.59,5.2,11.59,11.59s-5.2,11.59-11.59,11.59s-11.59-5.2-11.59-11.59
				S25.99,15.22,32.38,15.22 M32.38,13.73c-7.23,0-13.08,5.86-13.08,13.08c0,7.23,5.86,13.08,13.08,13.08
				c7.23,0,13.08-5.86,13.08-13.08C45.46,19.59,39.6,13.73,32.38,13.73L32.38,13.73z"/>
		</g>
		<g>
			<path class="st0" d="M32.38,43.79c-9.13,0-16.65,6.89-17.63,15.76c-0.12,1.05,0.71,1.98,1.76,1.98h15.87h15.87
				c1.06,0,1.88-0.93,1.76-1.98C49.02,50.68,41.51,43.79,32.38,43.79z"/>
			<path class="st0" d="M32.38,45.28c8.29,0,15.24,6.2,16.15,14.43c0.01,0.11-0.03,0.19-0.07,0.23c-0.04,0.04-0.11,0.09-0.21,0.09
				H32.38H16.51c-0.1,0-0.17-0.05-0.21-0.09c-0.04-0.05-0.09-0.12-0.07-0.23C17.14,51.49,24.09,45.28,32.38,45.28 M32.38,43.79
				c-9.13,0-16.65,6.89-17.63,15.76c-0.12,1.05,0.71,1.98,1.76,1.98h15.87h15.87c1.06,0,1.88-0.93,1.76-1.98
				C49.02,50.68,41.51,43.79,32.38,43.79L32.38,43.79z"/>
		</g>
		<g>
			<path class="st0" d="M2.66,28.62c0,6.07,5.05,11.08,11.63,11.93c1.05,0.14,1.98-0.7,1.98-1.76V28.62V16.56
				C8.74,16.56,2.66,21.96,2.66,28.62z"/>
			<path class="st0" d="M14.77,18.13v10.49v10.17c0,0.16-0.14,0.28-0.29,0.28c0,0,0,0,0,0C8.59,38.32,4.15,33.82,4.15,28.62
				C4.15,23.23,8.79,18.77,14.77,18.13 M16.26,16.56c-7.52,0-13.6,5.39-13.6,12.06c0,6.07,5.05,11.08,11.63,11.93
				c0.07,0.01,0.15,0.01,0.22,0.01c0.95,0,1.76-0.79,1.76-1.78V28.62V16.56L16.26,16.56z"/>
		</g>
		<g>
			<path class="st0" d="M62.05,28.62c0,6.07-5.05,11.08-11.63,11.93c-1.05,0.14-1.98-0.7-1.98-1.76V28.62V16.56
				C55.96,16.56,62.05,21.96,62.05,28.62z"/>
			<path class="st0" d="M49.93,18.13c5.98,0.64,10.62,5.1,10.62,10.49c0,5.2-4.44,9.7-10.36,10.46c-0.13,0-0.27-0.12-0.27-0.29
				V28.62V18.13 M48.44,16.56v12.06v10.17c0,0.98,0.8,1.78,1.76,1.78c0.07,0,0.15,0,0.22-0.01c6.58-0.85,11.63-5.86,11.63-11.93
				C62.05,21.96,55.96,16.56,48.44,16.56L48.44,16.56z"/>
		</g>
		<path class="st0" d="M15.74,24.29h-4.47c0-11.64,9.47-21.11,21.11-21.11v4.47C23.2,7.65,15.74,15.11,15.74,24.29z"/>
		<path class="st0" d="M53.49,24.29h-4.47c0-9.18-7.47-16.64-16.64-16.64V3.18C44.02,3.18,53.49,12.65,53.49,24.29z"/>
		<g>
			<path class="st0" d="M42.14,44.29c-1.78,0-3.23-1.17-3.23-2.61l3.23,0h3.23C45.37,43.12,43.92,44.29,42.14,44.29z"/>
			<path class="st0" d="M45.37,41.68h-3.23l-3.23,0c0,1.44,1.44,2.61,3.23,2.61S45.37,43.12,45.37,41.68L45.37,41.68z"/>
		</g>
		<path class="st0" d="M42.18,42.49V41c3.94,0,7.14-3.2,7.14-7.14h1.49C50.81,38.62,46.93,42.49,42.18,42.49z"/>
		<g>
			<path class="st0" d="M42.14,39.2c-1.78,0-3.23,1.17-3.23,2.61l3.23,0h3.23C45.37,40.37,43.92,39.2,42.14,39.2z"/>
			<path class="st0" d="M42.14,39.2c-1.78,0-3.23,1.17-3.23,2.61l3.23,0h3.23C45.37,40.37,43.92,39.2,42.14,39.2L42.14,39.2z"/>
		</g>
	</g>
</g>
<g id="Layer_2" class="st1">
	<g class="st2">
		<path class="st0" d="M8.98,29.3c-1.19,0-2.16-0.97-2.16-2.16c0-12.29,11.62-22.28,25.91-22.28c1.19,0,2.16,0.97,2.16,2.16
			s-0.97,2.16-2.16,2.16c-11.91,0-21.6,8.06-21.6,17.97C11.14,28.34,10.17,29.3,8.98,29.3z"/>
		<g>
			<path class="st0" d="M56.5,29.3c-1.19,0-2.16-0.97-2.16-2.16c0-9.91-9.69-17.97-21.6-17.97c-1.19,0-2.16-0.97-2.16-2.16
				s0.97-2.16,2.16-2.16c14.29,0,25.91,10,25.91,22.28C58.65,28.34,57.69,29.3,56.5,29.3z"/>
			<g>
				<polygon class="st0" points="63.81,18.82 56.5,26.13 49.19,18.82 49.19,25.03 56.5,32.34 63.81,25.03 				"/>
			</g>
		</g>
		<path class="st0" d="M31.97,59.84c-1.19,0-2.16-0.97-2.16-2.16s0.97-2.16,2.16-2.16c11.91,0,21.6-8.06,21.6-17.97
			c0-1.19,0.97-2.16,2.16-2.16s2.16,0.97,2.16,2.16C57.88,49.84,46.25,59.84,31.97,59.84z"/>
		<g>
			<path class="st0" d="M31.97,59.84c-14.29,0-25.91-10-25.91-22.28c0-1.19,0.97-2.16,2.16-2.16s2.16,0.97,2.16,2.16
				c0,9.91,9.69,17.97,21.6,17.97c1.19,0,2.16,0.97,2.16,2.16S33.16,59.84,31.97,59.84z"/>
			<g>
				<polygon class="st0" points="0.9,45.89 8.21,38.57 15.52,45.89 15.52,39.68 8.21,32.37 0.9,39.68 				"/>
			</g>
		</g>
	</g>
</g>
</svg>
