<?xml version="1.0" encoding="utf-8"?>
<!-- Generator: Adobe Illustrator 24.3.0, SVG Export Plug-In . SVG Version: 6.00 Build 0)  -->
<svg version="1.1" xmlns="http://www.w3.org/2000/svg" xmlns:xlink="http://www.w3.org/1999/xlink" x="0px" y="0px"
	 viewBox="0 0 552.71 385.82" style="enable-background:new 0 0 552.71 385.82;" xml:space="preserve">
<style type="text/css">
	.st0{fill:#8CC63F;}
	.st1{fill:url(#SVGID_1_);}
	.st2{fill:url(#SVGID_2_);}
	.st3{fill:url(#SVGID_3_);}
	.st4{fill:none;}
	.st5{font-family:'Nunito-Bold';}
	.st6{font-size:200px;}
	.st7{letter-spacing:-10;}
	.st8{letter-spacing:-15;}
	.st9{letter-spacing:-5;}
</style>
<g id="Layer_1">
	<g>
		<path class="st0" d="M132.69,66.36c0-0.68,0.06-1.34,0.14-1.99l-31.68,62.77l-2.06,4.07L75.81,86.33l-1.49-2.88
			c-2.98-5.73-8.63-9.3-14.77-9.3H24.36c-9.32,0-16.88,8.08-16.88,18.03c0,7.48,4.26,13.9,10.34,16.63
			c2.01,0.91,4.22,1.41,6.54,1.41h25.25l5.59,10.78l29.33,56.57c1.87,3.61,4.81,6.36,8.26,7.9c2.03,0.91,4.23,1.4,6.5,1.4
			c0.04,0,0.07,0,0.1,0c6.17-0.04,11.83-3.67,14.76-9.47l47.95-95.02l-13.42,0C139.86,82.36,132.69,75.2,132.69,66.36z"/>
		<linearGradient id="SVGID_1_" gradientUnits="userSpaceOnUse" x1="132.6941" y1="66.3577" x2="500.6946" y2="66.3577">
			<stop  offset="0" style="stop-color:#8CC63F"/>
			<stop  offset="0.7" style="stop-color:#000000"/>
		</linearGradient>
		<path class="st1" d="M484.69,50.35l-306.43,0.01l-16.15,32l322.58-0.01c8.84,0,16-7.16,16-16S493.53,50.35,484.69,50.35z"/>
		<linearGradient id="SVGID_2_" gradientUnits="userSpaceOnUse" x1="132.6941" y1="59.5804" x2="500.6946" y2="59.5804">
			<stop  offset="0" style="stop-color:#8CC63F"/>
			<stop  offset="0.7" style="stop-color:#000000"/>
		</linearGradient>
		<path class="st2" d="M132.83,64.37l4.84-9.58C135.06,57.27,133.3,60.62,132.83,64.37z"/>
		<path class="st0" d="M148.69,50.36c-4.28,0-8.16,1.69-11.03,4.43l-4.84,9.58c-0.08,0.65-0.14,1.32-0.14,1.99c0,8.84,7.16,16,16,16
			l13.42,0l16.15-32L148.69,50.36z"/>
		<linearGradient id="SVGID_3_" gradientUnits="userSpaceOnUse" x1="132.6941" y1="66.3624" x2="500.6946" y2="66.3624">
			<stop  offset="0" style="stop-color:#8CC63F"/>
			<stop  offset="0.7" style="stop-color:#000000"/>
		</linearGradient>
		<path class="st3" d="M148.69,50.36c-4.28,0-8.16,1.69-11.03,4.43l-4.84,9.58c-0.08,0.65-0.14,1.32-0.14,1.99c0,8.84,7.16,16,16,16
			l13.42,0l16.15-32L148.69,50.36z"/>
	</g>
</g>
<g id="Layer_2">
	<g>
		<rect x="119.65" y="43" class="st4" width="372.18" height="186.62"/>
		<text transform="matrix(1 0 0 1.25 119.6496 185.5974)" class="st5 st6 st7">S</text>
		<text transform="matrix(1 0 0 1 235.8493 185.5974)" class="st5 st6 st8">q</text>
		<text transform="matrix(1 0 0 1 340.8473 185.5974)" class="st5 st6 st9">r</text>
		<text transform="matrix(1 0 0 1.25 414.2467 185.5974)" class="st5 st6 st9">l</text>
		<rect x="167.02" y="229.62" class="st4" width="446.21" height="186.62"/>
		<text transform="matrix(1 0 0 1.25 167.0244 372.2161)" class="st5 st6 st7">C</text>
		<text transform="matrix(1 0 0 1 293.0234 372.2161)" class="st5 st6 st8">a</text>
		<text transform="matrix(1 0 0 1.25 387.4228 372.2161)" class="st5 st6 st9">l</text>
		<text transform="matrix(1 0 0 1 446.2197 372.2161)" class="st5 st6 st9">c</text>
		<text transform="matrix(1 0 0 1.25 535.6172 372.2161)" class="st5 st6 st7"> </text>
	</g>
</g>
</svg>
